# AST/ASF file generated using VICON BodyLanguage
# -----------------------------------------------
:version 1.10
:name VICON
:units
  mass 1.0
  length 0.45
  angle deg
:documentation
   .ast/.asf automatically generated from VICON data using
   VICON BodyBuilder and BodyLanguage model FoxedUp or BRILLIANT.MOD
:root
   order TX TY TZ RX RY RZ
   axis XYZ
   position 0 0 0  
   orientation 0 0 0 
:bonedata
  begin
     id 1 
     name lhipjoint
     direction 0.611804 -0.747784 0.257906 
     length 2.29243 
     axis 0 0 0  XYZ
  end
  begin
     id 2 
     name lfemur
     direction 0.34202 -0.939693 0  
     length 7.31159  
     axis 0 0 20  XYZ
    dof rx ry rz
    limits (-160.0 20.0)
           (-70.0 70.0)
           (-60.0 70.0)
  end
  begin
     id 3 
     name ltibia
     direction 0.34202 -0.939693 0   
     length 7.33391   
     axis 0 0 20   XYZ
    dof rx
    limits (-10.0 170.0)
  end
  begin
     id 4 
     name lfoot
     direction 0.122263 -0.335914 0.933924   
     length 1.76083   
     axis -90 7.62852e-016 20   XYZ
    dof rx rz
    limits (-45.0 90.0)
           (-70.0 20.0)
  end
  begin
     id 5 
     name ltoes
     direction 1.53533e-011 -4.2177e-011 1   
     length 0.879206   
     axis -90 7.62852e-016 20   XYZ
    dof rx
    limits (-90.0 20.0)
  end
  begin
     id 6 
     name rhipjoint
     direction -0.646469 -0.721248 0.248754   
     length 2.37677  
     axis 0 0 0  XYZ 
  end
  begin
     id 7 
     name rfemur
     direction -0.34202 -0.939693 0   
     length 7.18623   
     axis 0 0 -20   XYZ
    dof rx ry rz
    limits (-160.0 20.0)
           (-70.0 70.0)
           (-70.0 60.0)
  end
  begin
     id 8 
     name rtibia
     direction -0.34202 -0.939693 0   
     length 7.36567   
     axis 0 0 -20   XYZ
    dof rx
    limits (-10.0 170.0)
 end
 begin
     id 9 
     name rfoot
     direction -0.126681 -0.348054 0.928876   
     length 1.71902  
     axis -90 -7.62852e-016 -20   XYZ
    dof rx rz
    limits (-45.0 90.0)
           (-20.0 70.0)
  end
  begin
     id 10 
     name rtoes
     direction -1.53551e-011 -4.21898e-011 1   
     length 0.857792   
     axis -90 -7.62852e-016 -20   XYZ
    dof rx
    limits (-90.0 20.0)
  end
  begin
     id 11 
     name lowerback
     direction 0.0106509 0.999778 0.0181844   
     length 2.07668   
     axis 0 0 0   XYZ
    dof rx ry rz
    limits (-20.0 45.0)
           (-30.0 30.0)
           (-30.0 30.0)
  end
  begin
     id 12 
     name upperback
     direction -0.00456018 0.999989 -0.000590935   
     length 2.08011   
     axis 0 0 0   XYZ
    dof rx ry rz
    limits (-20.0 45.0)
           (-30.0 30.0)
           (-30.0 30.0)
  end
  begin
     id 13 
     name thorax
     direction -0.00910382 0.999916 -0.00923765   
     length 2.07397   
     axis 0 0 0   XYZ
    dof rx ry rz
    limits (-20.0 45.0)
           (-30.0 30.0)
           (-30.0 30.0)
  end
  begin
     id 14 
     name lowerneck
     direction 0.00171967 0.99778 0.0665733   
     length 1.67556   
     axis 0 0 0   XYZ
    dof rx ry rz
    limits (-20.0 45.0)
           (-30.0 30.0)
           (-30.0 30.0)
  end
  begin
     id 15 
     name upperneck
     direction -0.0143166 0.991302 -0.130828   
     length 1.68462   
     axis 0 0 0   XYZ
    dof rx ry rz
    limits (-20.0 45.0)
           (-30.0 30.0)
           (-30.0 30.0)
  end
  begin
     id 16
     name head
     direction -0.00606378 0.998665 -0.0512995  
     length 1.69269  
     axis 0 0 0   XYZ
    dof rx ry rz
    limits (-20.0 45.0)
           (-30.0 30.0)
           (-30.0 30.0)
  end
  begin
     id 17 
     name lclavicle
     direction 0.9638 0.179341 0.197297  
     length 4.12888  
     axis 0 0 0   XYZ
    dof ry rz
    limits (-20.0 10.0)
           (0.0 20.0)
  end
  begin
     id 18 
     name lhumerus
     direction 1 -4.48972e-011 -2.47351e-027   
     length 5.01834   
     axis -180 -30 -90   XYZ
    dof rx ry rz
    limits (-60.0 90.0)
           (-90.0 90.0)
           (-90.0 90.0)
  end
  begin
     id 19
     name lradius
     direction 1 -4.48965e-011 1.51591e-026   
     length 3.4869   
     axis -180 -30 -90   XYZ
    dof rx
    limits (-10.0 170.0)
  end
  begin
     id 20
     name lwrist
     direction 1 -4.48957e-011 2.70032e-026   
     length 1.74345   
     axis -1.81515e-014 90 90   XYZ
    dof ry
    limits (-180.0 0.0)
 end
  begin
     id 21 
     name lhand
     direction 1 -4.48951e-011 5.40064e-026   
     length 0.76799   
     axis -3.44607e-014 90 90   XYZ
    dof rx rz
    limits (-90.0 90.0)
           (-45.0 45.0)
  end
  begin
     id 22 
     name lfingers
     direction 1 -4.48971e-011 1.08013e-025   
     length 0.619174   
     axis -6.89214e-014 90 90   XYZ
    dof rx
    limits (0.0 90.0)
  end
  begin
     id 23
     name lthumb
     direction 0.707107 -6.34931e-011 0.707107   
     length 0.889013   
     axis -90 45 2.85299e-015   XYZ
    dof rx rz
    limits (-45.0 45.0)
           (-45.0 45.0)
  end
  begin
     id 24 
     name rclavicle
     direction -0.961409 0.252588 0.109054   
     length 4.04305  
     axis 0 0 0   XYZ 
    dof ry rz
    limits (-10.0 20.0)
           (-20.0 0.0)
  end
  begin
     id 25 
     name rhumerus
     direction -1 -4.4897e-011 1.33872e-017  
     length 4.70164   
     axis -180 30 90   XYZ
    dof rx ry rz
    limits (-90.0 60.0)
           (-90.0 90.0)
           (-90.0 90.0)
  end
  begin
     id 26 
     name rradius
     direction -1 -4.48954e-011 1.83844e-026   
     length 3.49911   
     axis -180 30 90   XYZ
    dof rx
    limits (-10.0 170.0)
  end
  begin
     id 27 
     name rwrist
     direction -1 -4.49008e-011 2.70032e-026   
     length 1.74955   
     axis -1.81515e-014 -90 -90   XYZ
    dof ry
    limits (-180.0 0.0)
  end
  begin
     id 28
     name rhand
     direction -1 -4.48916e-011 5.40064e-026   
     length 0.739335   
     axis -3.44607e-014 -90 -90   XYZ
    dof rx rz
    limits (-90.0 90.0)
           (-45.0 45.0)
  end
  begin
     id 29
     name rfingers
     direction -1 -4.48987e-011 1.08013e-025   
     length 0.596071   
     axis -6.89214e-014 -90 -90   XYZ
    dof rx
    limits (0.0 90.0)
  end
  begin
     id 30
     name rthumb
     direction -0.707107 -6.34935e-011 0.707107   
     length 0.855843   
     axis -90 -45 -2.85299e-015   XYZ
    dof rx rz
    limits (-45.0 45.0)
           (-45.0 45.0)
  end
:hierarchy
  begin
    root lhipjoint rhipjoint lowerback
    lhipjoint lfemur
    lfemur ltibia
    ltibia lfoot
    lfoot ltoes
    rhipjoint rfemur
    rfemur rtibia
    rtibia rfoot
    rfoot rtoes
    lowerback upperback
    upperback thorax
    thorax lowerneck lclavicle rclavicle
    lowerneck upperneck
    upperneck head
    lclavicle lhumerus
    lhumerus lradius
    lradius lwrist
    lwrist lhand lthumb
    lhand lfingers
    rclavicle rhumerus
    rhumerus rradius
    rradius rwrist
    rwrist rhand rthumb
    rhand rfingers
  end

#!OML:ASF I:\salsa\salsa 7_09\Patient 1\Session 1\dancermale.ASF
:FULLY-SPECIFIED
:DEGREES
1208
root 13.1306 17.5108 3.63006 379.038 -409.571 -365.406
lowerback -18.5724 4.26582 -7.02239
upperback -1.96738 7.21868 -2.77273
thorax 7.72832 3.27061 2.71039
lowerneck -4.99938 -2.00799 -0.588635
upperneck 13.9078 -3.2946 4.08157
head 5.07684 -1.41825 1.16633
rclavicle 2.39536e-014 -2.54444e-014
rhumerus 26.0728 -3.39333 7.05837
rradius 67.58
rwrist -1.93783
rhand 56.1037 -0.626457
rfingers 7.12502
rthumb 73.3232 378.94
lclavicle 2.39536e-014 -2.54444e-014
lhumerus -23.5651 -8.17873 76.6603
lradius 115.654
lwrist 21.2372
lhand -35.2853 51.0899
lfingers 7.12502
lthumb -8.42012 80.902
rfemur -31.9155 -6.59939 18.5785
rtibia 42.6254
rfoot -4.35585 -22.8222
rtoes 24.1509
lfemur -201.794 187.473 -191.99
ltibia 17.9136
lfoot -17.9963 -4.51517
ltoes 62.3272
1209
root 13.0228 17.5243 3.55184 379.02 -407.928 -365.42
lowerback -18.6537 4.56125 -6.80739
upperback -2.10795 7.574 -2.92649
thorax 7.63822 3.45771 2.50947
lowerneck -4.74464 -2.57642 -0.251484
upperneck 13.7069 -4.07311 3.993
head 4.98338 -1.79302 1.04115
rclavicle 5.36719e-015 -4.77083e-014
rhumerus 26.7715 -3.51913 7.77726
rradius 66.8021
rwrist 0.680615
rhand 51.4895 0.319539
rfingers 7.12502
rthumb 70.8948 367.674
lclavicle 5.36719e-015 -4.77083e-014
lhumerus -23.2421 -9.12181 75.9168
lradius 116.221
lwrist 20.6445
lhand -34.0578 50.8351
lfingers 7.12502
lthumb -7.23539 80.6914
rfemur -29.7521 -5.01741 17.8717
rtibia 37.9346
rfoot -3.49802 -21.8666
rtoes 19.8918
lfemur -201.107 188.323 -191.163
ltibia 16.2128
lfoot -17.3133 -4.18063
ltoes 62.2352
1210
root 12.9084 17.5339 3.4699 378.916 -406.405 -365.358
lowerback -18.7964 4.7959 -6.76518
upperback -2.15196 7.89313 -3.02082
thorax 7.66218 3.6139 2.46966
lowerneck -4.87012 -3.13432 -0.14062
upperneck 13.6985 -4.84195 4.01869
head 5.0183 -2.15937 0.983502
rclavicle 4.64162e-014 -6.36111e-015
rhumerus 27.566 -3.74048 8.34423
rradius 66.2617
rwrist 3.23294
rhand 46.2341 1.22215
rfingers 7.12502
rthumb 67.3146 358.442
lclavicle 4.64162e-014 -6.36111e-015
lhumerus -23.0882 -9.6219 75.0307
lradius 116.848
lwrist 20.3066
lhand -32.9518 50.5964
lfingers 7.12502
lthumb -6.16769 80.4866
rfemur -27.8055 -3.85456 17.6087
rtibia 34.0431
rfoot -2.4414 -20.3744
rtoes 12.5798
lfemur -200.564 189.347 -190.384
ltibia 14.8517
lfoot -16.8966 -3.75311
ltoes 62.1052
1211
root 12.7884 17.5385 3.38643 378.844 -404.937 -365.258
lowerback -18.9557 5.04892 -6.84872
upperback -2.22942 8.25654 -3.07503
thorax 7.63213 3.7899 2.55072
lowerneck -5.06654 -3.7267 -0.370394
upperneck 13.7683 -5.65641 4.24289
head 5.10458 -2.55007 1.0363
rclavicle -9.36276e-014 -1.11319e-014
rhumerus 28.1833 -3.87499 8.90761
rradius 65.9708
rwrist 5.70888
rhand 40.1443 2.50349
rfingers 7.12502
rthumb 62.5147 351.666
lclavicle -9.36276e-014 -1.11319e-014
lhumerus -23.1325 -9.93125 74.1455
lradius 117.417
lwrist 20.1839
lhand -32.0097 50.4465
lfingers 7.12502
lthumb -5.25809 80.3613
rfemur -26.2789 -3.24319 17.764
rtibia 31.728
rfoot -2.16717 -20.3132
rtoes 6.33292
lfemur -200.275 190.698 -189.574
ltibia 13.8674
lfoot -16.7994 -3.21151
ltoes 62.0881
1212
root 12.6661 17.5415 3.30045 378.691 -403.56 -365.104
lowerback -18.9118 5.32949 -6.95513
upperback -2.39713 8.64042 -3.21523
thorax 7.40111 3.98841 2.52952
lowerneck -4.85248 -4.18726 -0.740353
upperneck 13.5907 -6.32095 4.87931
head 5.06203 -2.86066 1.25731
rclavicle 1.46107e-014 -1.59028e-015
rhumerus 28.5587 -3.84737 9.2914
rradius 66.0027
rwrist 8.24205
rhand 35.2848 3.22121
rfingers 7.12502
rthumb 58.385 347.85
lclavicle 1.46107e-014 -1.59028e-015
lhumerus -23.4706 -10.1835 72.9587
lradius 117.968
lwrist 20.6251
lhand -31.2542 50.2203
lfingers 7.12502
lthumb -4.52859 80.1519
rfemur -25.0959 -3.43144 18.3423
rtibia 30.9997
rfoot -3.12579 -21.2845
rtoes -1.0722
lfemur -200.053 192.066 -188.804
ltibia 13.1071
lfoot -16.8047 -2.69804
ltoes 62.0616
1213
root 12.5416 17.5437 3.21784 378.564 -402.251 -364.964
lowerback -18.9174 5.57804 -6.9886
upperback -2.55732 8.97628 -3.41149
thorax 7.23042 4.16317 2.40403
lowerneck -4.5607 -4.57028 -0.966738
upperneck 13.2882 -6.88529 5.50903
head 4.96624 -3.12123 1.46226
rclavicle -1.77912e-014 5.56597e-014
rhumerus 28.9333 -3.84465 9.39199
rradius 66.2087
rwrist 10.9385
rhand 31.708 4.02107
rfingers 7.12502
rthumb 55.2356 346.054
lclavicle -1.77912e-014 5.56597e-014
lhumerus -24.0152 -10.2504 71.4076
lradius 118.46
lwrist 21.4299
lhand -30.7086 50.0312
lfingers 7.12502
lthumb -4.00176 79.9734
rfemur -24.018 -3.3621 18.883
rtibia 29.9771
rfoot -4.3135 -22.7747
rtoes -5.68202
lfemur -199.911 193.219 -188.02
ltibia 12.3877
lfoot -16.7758 -2.17602
ltoes 61.8144
1214
root 12.4246 17.545 3.14412 378.497 -400.968 -364.772
lowerback -19.0561 5.80765 -7.00896
upperback -2.70838 9.29667 -3.60156
thorax 7.14566 4.32559 2.29043
lowerneck -4.56677 -5.03613 -0.884697
upperneck 13.2913 -7.52554 5.52303
head 4.98855 -3.42901 1.41344
rclavicle -7.70291e-014 -6.04305e-014
rhumerus 29.2437 -3.56746 9.78395
rradius 66.4441
rwrist 12.4047
rhand 27.6007 4.7636
rfingers 7.12502
rthumb 51.5375 344.387
lclavicle -7.70291e-014 -6.04305e-014
lhumerus -24.581 -10.0732 69.8109
lradius 118.778
lwrist 22.3695
lhand -30.2758 49.8234
lfingers 7.12502
lthumb -3.58385 79.773
rfemur -22.4797 -3.6452 19.2917
rtibia 27.551
rfoot -5.15481 -23.8436
rtoes -8.90919
lfemur -199.989 194.479 -187.298
ltibia 11.8557
lfoot -16.8731 -1.61779
ltoes 61.5477
1215
root 12.3127 17.5429 3.06771 378.533 -399.983 -364.484
lowerback -19.3125 6.0501 -7.22602
upperback -2.90363 9.67857 -3.79356
thorax 7.0407 4.51295 2.30361
lowerneck -4.52225 -5.44343 -0.769353
upperneck 13.2623 -8.08233 5.50457
head 4.98643 -3.69801 1.3562
rclavicle 6.64935e-014 -2.22639e-014
rhumerus 29.5386 -3.00299 10.3786
rradius 66.6217
rwrist 12.8833
rhand 22.5264 5.84488
rfingers 7.12502
rthumb 46.881 343.126
lclavicle 6.64935e-014 -2.22639e-014
lhumerus -24.9887 -9.57468 68.3076
lradius 118.724
lwrist 23.1457
lhand -29.7654 49.4276
lfingers 7.12502
lthumb -3.09094 79.3849
rfemur -20.6196 -4.16418 19.6216
rtibia 24.2127
rfoot -5.34975 -24.0898
rtoes -12.2212
lfemur -200.307 195.209 -186.775
ltibia 11.635
lfoot -16.8283 -1.42075
ltoes 61.4423
1216
root 12.1933 17.5329 2.99014 378.577 -399.085 -364.387
lowerback -19.5746 6.25411 -7.42481
upperback -3.011 10.007 -3.86225
thorax 7.01783 4.66887 2.43247
lowerneck -4.48252 -5.78931 -0.791869
upperneck 13.0234 -8.54445 5.60122
head 4.92718 -3.92526 1.3647
rclavicle -2.95195e-014 1.74931e-014
rhumerus 29.8972 -2.282 10.9575
rradius 66.9557
rwrist 13.1748
rhand 18.3799 6.48767
rfingers 7.12502
rthumb 43.0229 342.25
lclavicle -2.95195e-014 1.74931e-014
lhumerus -25.4275 -8.59631 66.7745
lradius 118.527
lwrist 23.1301
lhand -28.0965 48.9302
lfingers 7.12502
lthumb -1.47907 78.9048
rfemur -18.7166 -4.64209 20.1108
rtibia 21.142
rfoot -5.47126 -24.0112
rtoes -14.8756
lfemur -200.676 195.612 -186.109
ltibia 11.7703
lfoot -16.7441 -1.50801
ltoes 61.3267
1217
root 12.0761 17.5209 2.91115 378.637 -398.35 -364.325
lowerback -19.8521 6.48174 -7.6008
upperback -3.08145 10.3685 -3.93948
thorax 7.04467 4.83801 2.55308
lowerneck -4.26825 -6.02053 -0.666218
upperneck 12.511 -8.83045 5.60804
head 4.73842 -4.07521 1.34367
rclavicle 1.03368e-014 -4.92986e-014
rhumerus 30.1331 -1.31745 11.5624
rradius 67.4213
rwrist 13.5868
rhand 14.2157 6.64282
rfingers 7.12502
rthumb 39.1129 341.155
lclavicle 1.03368e-014 -4.92986e-014
lhumerus -25.9625 -7.61552 65.0511
lradius 118.378
lwrist 23.0617
lhand -26.4765 48.4946
lfingers 7.12502
lthumb 0.0855377 78.4743
rfemur -17.4599 -4.54443 20.5813
rtibia 19.1444
rfoot -5.97482 -24.258
rtoes -16.6773
lfemur -201.213 195.566 -185.494
ltibia 12.3109
lfoot -16.6074 -1.87576
ltoes 61.1316
1218
root 11.9693 17.5089 2.83347 378.527 -397.841 -364.214
lowerback -19.9053 6.82325 -7.7406
upperback -3.13099 10.8586 -4.09196
thorax 6.98445 5.07683 2.57652
lowerneck -3.90394 -6.2722 -0.410851
upperneck 11.7686 -9.13636 5.61773
head 4.44955 -4.23919 1.31253
rclavicle -3.98563e-014 6.67916e-014
rhumerus 30.1388 -0.162443 12.2642
rradius 67.9712
rwrist 14.1507
rhand 10.6049 7.21181
rfingers 7.12502
rthumb 35.6999 340.822
lclavicle -3.98563e-014 6.67916e-014
lhumerus -26.4612 -6.89654 63.3168
lradius 118.098
lwrist 22.999
lhand -25.4618 48.2122
lfingers 7.12502
lthumb 1.06554 78.1893
rfemur -16.733 -4.13571 20.9354
rtibia 18.2437
rfoot -6.73658 -24.7091
rtoes -17.6307
lfemur -201.731 195.293 -185.087
ltibia 13.2118
lfoot -16.572 -2.38754
ltoes 61.0972
1219
root 11.8706 17.4894 2.73039 378.723 -397.364 -364.156
lowerback -19.8618 7.1052 -7.91247
upperback -3.33113 11.252 -4.27041
thorax 6.71429 5.28384 2.54055
lowerneck -3.64463 -6.54608 -0.522919
upperneck 10.7366 -9.45348 5.80394
head 4.56816 -4.43357 1.55557
rclavicle -1.17283e-014 -3.18055e-014
rhumerus 30.0475 1.11042 13.2102
rradius 68.708
rwrist 14.6818
rhand 7.41834 8.21065
rfingers 7.12502
rthumb 32.6738 341.142
lclavicle -1.17283e-014 -3.18055e-014
lhumerus -27.0447 -6.15682 61.6877
lradius 117.777
lwrist 23.0682
lhand -24.5991 47.7122
lfingers 7.12502
lthumb 1.89881 77.6835
rfemur -16.3981 -3.47016 21.5201
rtibia 17.3481
rfoot -7.18281 -25.312
rtoes -17.8253
lfemur -202.896 194.206 -184.604
ltibia 14.7093
lfoot -16.1605 -3.47442
ltoes 61.1349
1220
root 11.779 17.4635 2.6021 379.325 -396.809 -364.136
lowerback -19.8749 7.28339 -8.03584
upperback -3.66304 11.4945 -4.51658
thorax 6.3667 5.42621 2.37154
lowerneck -3.60705 -6.80468 -0.768139
upperneck 10.339 -9.80964 6.26796
head 4.47868 -4.60819 1.73912
rclavicle -3.93594e-014 6.36111e-015
rhumerus 29.931 2.50781 14.1913
rradius 69.6003
rwrist 15.2042
rhand 3.74094 9.11467
rfingers 7.12502
rthumb 29.1683 341.38
lclavicle -3.93594e-014 6.36111e-015
lhumerus -27.708 -5.26017 60.0143
lradius 117.554
lwrist 23.464
lhand -23.6632 46.9801
lfingers 7.12502
lthumb 2.80267 76.9414
rfemur -16.5813 -2.52428 22.3335
rtibia 16.4663
rfoot -7.5676 -26.1254
rtoes -17.1126
lfemur -204.88 192.361 -184.056
ltibia 16.8529
lfoot -15.339 -5.09697
ltoes 61.0411
